<svg width="73" height="70" viewBox="0 0 73 70" fill="none" xmlns="http://www.w3.org/2000/svg">
<circle cx="32.5893" cy="36.956" r="32.5893" fill="#022B50"/>
<circle cx="40.4096" cy="33.0439" r="32.5893" fill="#FCD209"/>
<path d="M25.3211 16.0972C23.9427 16.0972 22.8105 17.2034 22.8105 18.5503V38.207C22.8105 39.5539 23.9427 40.6601 25.3211 40.6601H55.4965C56.8749 40.6601 58.007 39.5539 58.007 38.207V18.5503C58.007 17.2034 56.8749 16.0972 55.4965 16.0972H25.3211ZM25.3211 17.7412H55.4965C55.9692 17.7412 56.3246 18.0883 56.3246 18.5503V38.2071C56.3246 38.6688 55.9692 39.029 55.4965 39.029H25.3211C24.8484 39.029 24.4799 38.6688 24.4799 38.2071V18.5503C24.4799 18.0886 24.8484 17.7412 25.3211 17.7412ZM26.9937 19.3595C26.7703 19.362 26.5572 19.4516 26.4016 19.6083C26.2461 19.7652 26.1612 19.976 26.1655 20.1943V36.576C26.1681 36.792 26.258 36.9983 26.4157 37.1498C26.5732 37.3014 26.7857 37.3859 27.0068 37.3851H53.814C54.0483 37.4056 54.2807 37.329 54.4543 37.1739C54.6279 37.0188 54.727 36.7994 54.727 36.5695C54.727 36.3397 54.6279 36.1203 54.4543 35.9652C54.2807 35.8101 54.0483 35.7335 53.814 35.754H27.8349V20.1945C27.8393 19.974 27.7525 19.7611 27.5942 19.604C27.4359 19.4468 27.2194 19.3586 26.9937 19.3595ZM50.4492 21.0034C50.228 21.0102 50.0186 21.1022 49.8665 21.2593L45.438 25.5865L42.6788 22.8903C42.5072 22.7232 42.2702 22.6368 42.0286 22.6534C41.787 22.67 41.5645 22.7878 41.4186 22.9765L36.9639 28.7781L34.293 26.1651C34.116 25.9927 33.8694 25.9063 33.6205 25.9299C33.3717 25.9534 33.1466 26.0842 33.0066 26.2867L29.6516 31.2057C29.4855 31.4497 29.4653 31.7617 29.5986 32.0242C29.7317 32.2866 29.998 32.4598 30.2974 32.4783C30.5966 32.4969 30.8831 32.358 31.0493 32.114L33.8347 28.0267L36.4697 30.6013C36.6426 30.7673 36.8804 30.852 37.1221 30.8336C37.3638 30.8152 37.5854 30.6955 37.7298 30.5053L42.1716 24.7164L44.8458 27.3262C45.0029 27.4797 45.216 27.5659 45.4382 27.5659C45.6604 27.5659 45.8736 27.4797 46.0307 27.3262L51.0551 22.4071C51.2165 22.2529 51.3073 22.0419 51.3072 21.8214C51.3072 21.601 51.2161 21.3898 51.0547 21.2359C50.8933 21.0818 50.6747 20.9982 50.4492 21.0034ZM37.0489 43.4368C35.9316 43.4368 34.9154 43.964 34.1554 44.7065C33.3953 45.4492 32.869 46.4453 32.869 47.537V49.1681C32.8682 49.3841 32.9546 49.5917 33.1098 49.7458C33.2649 49.8997 33.476 49.9875 33.6971 49.9901H47.1072C47.3306 49.9909 47.545 49.9045 47.7029 49.7502C47.8608 49.5959 47.9492 49.3864 47.9484 49.1681V47.537C47.9484 46.4454 47.409 45.4492 46.6489 44.7065C45.8888 43.9638 44.8727 43.4368 43.7554 43.4368L37.0489 43.4368ZM37.0489 45.0807H43.7555C44.3141 45.0807 44.977 45.3695 45.4739 45.8547C45.9708 46.3399 46.266 46.9912 46.266 47.537V48.359H34.5381V47.537C34.5381 46.9912 34.8465 46.3402 35.3433 45.8547C35.8401 45.3695 36.4902 45.0807 37.0489 45.0807Z" fill="#171717" stroke="#171717" stroke-width="0.521429"/>
</svg>
