<svg width="72" height="71" viewBox="0 0 72 71" fill="none" xmlns="http://www.w3.org/2000/svg">
<circle cx="32.5893" cy="37.803" r="32.5893" fill="#022B50"/>
<circle cx="39.1074" cy="32.5893" r="32.5893" fill="#FCD209"/>
<path fill-rule="evenodd" clip-rule="evenodd" d="M37.6493 37.1238C37.6493 37.9297 38.3033 38.5849 39.1073 38.5849C39.9116 38.5849 40.5659 37.9296 40.5659 37.1238C40.5659 36.3189 39.9116 35.664 39.1073 35.664C38.3033 35.664 37.6493 36.319 37.6493 37.1238ZM36.3824 37.1238C36.3824 35.6187 37.6041 34.3952 39.1073 34.3952C40.6102 34.3952 41.8328 35.6187 41.8328 37.1238C41.8328 38.6292 40.6102 39.8537 39.1073 39.8537C37.6041 39.854 36.3824 38.6296 36.3824 37.1238ZM44.4824 47.7628C44.3653 45.4654 43.3412 43.4216 41.747 42.2908C40.092 43.1392 38.122 43.1388 36.4667 42.2908C34.8725 43.4217 33.849 45.4654 33.7323 47.7628C36.9083 50.1735 41.3054 50.1728 44.4822 47.7628H44.4824ZM45.7588 48.0534C45.7625 48.2476 45.6764 48.4326 45.5265 48.5541C41.784 51.5989 36.4304 51.6031 32.6884 48.5541C32.5388 48.4323 32.4524 48.2476 32.4555 48.0534C32.5006 45.0561 33.9015 42.3567 36.1107 41.0082C36.3126 40.8848 36.5661 40.8848 36.7681 41.007C38.2033 41.875 40.0111 41.8747 41.4464 41.007C41.6489 40.8848 41.9025 40.8848 42.1044 41.0082C44.3132 42.357 45.7144 45.0564 45.7589 48.0534H45.7588ZM47.9437 17.0694C47.9437 17.8743 48.5977 18.5292 49.4017 18.5292C50.2064 18.5292 50.8603 17.8742 50.8603 17.0694C50.8603 16.2635 50.2063 15.6086 49.4017 15.6086C48.5977 15.6086 47.9437 16.2636 47.9437 17.0694ZM46.6768 17.0694C46.6768 15.5642 47.8985 14.3395 49.4017 14.3395C50.9046 14.3395 52.1272 15.5642 52.1272 17.0694C52.1272 18.5739 50.9046 19.7983 49.4017 19.7983C47.8985 19.7983 46.6768 18.5739 46.6768 17.0694ZM54.7776 27.7076C54.6602 25.4111 53.6364 23.3673 52.0422 22.2361C50.3863 23.085 48.4175 23.085 46.7619 22.2361C45.1677 23.3673 44.1442 25.4111 44.0275 27.7076C47.2007 30.1179 51.6043 30.1179 54.7774 27.7076H54.7776ZM56.0537 27.9981C56.0568 28.1923 55.9713 28.3773 55.8207 28.4998C52.0958 31.5368 46.7058 31.5488 42.9827 28.4998C42.8333 28.377 42.747 28.1923 42.7504 27.9981C42.7949 25.0008 44.1961 22.3014 46.4055 20.953C46.6075 20.8305 46.861 20.8296 47.0626 20.9521C48.4939 21.8213 50.3097 21.8195 51.7416 20.9521C51.9441 20.8296 52.1977 20.8302 52.3996 20.953C54.6081 22.3014 56.0087 25.0008 56.0538 27.9981H56.0537ZM27.3548 17.0692C27.3548 17.8741 28.0088 18.529 28.8128 18.529C29.6171 18.529 30.2708 17.874 30.2708 17.0692C30.2708 16.2633 29.6168 15.6084 28.8128 15.6084C28.0088 15.6084 27.3548 16.2634 27.3548 17.0692ZM26.0877 17.0692C26.0877 15.564 27.3103 14.3393 28.8132 14.3393C30.3161 14.3393 31.5387 15.564 31.5387 17.0692C31.5387 18.5737 30.3161 19.7981 28.8132 19.7981C27.3103 19.7981 26.0877 18.5737 26.0877 17.0692ZM23.4381 27.7074C26.6114 30.1177 31.0149 30.1177 34.188 27.7074C34.0709 25.4109 33.0468 23.3671 31.4526 22.2359C29.7976 23.0848 27.8276 23.0848 26.1726 22.2359C24.5784 23.3671 23.5547 25.4109 23.4379 27.7074H23.4381ZM28.8131 30.7856C26.4798 30.7856 24.2002 29.9739 22.394 28.4999C22.2437 28.3771 22.158 28.1924 22.1611 27.9982C22.2065 25.0009 23.6071 22.3015 25.8162 20.9531C26.0179 20.8306 26.2717 20.8296 26.4736 20.9521C27.9058 21.821 29.7198 21.8202 31.152 20.9521C31.3545 20.8296 31.6081 20.8303 31.81 20.9531C34.0185 22.3015 35.4197 25.0009 35.4648 27.9982C35.4679 28.1924 35.3822 28.3774 35.2319 28.4999C33.4257 29.9739 31.1464 30.7856 28.8131 30.7856ZM52.2397 38.5035C52.0633 38.8098 51.6755 38.9095 51.3739 38.7353L39.1079 31.6428L26.8411 38.7353C26.5393 38.9095 26.1521 38.8095 25.9756 38.5035C25.8005 38.2 25.9046 37.8119 26.2077 37.6368L38.4737 30.5442V16.3587C38.4737 16.0081 38.7577 15.7243 39.1074 15.7243C39.4575 15.7243 39.7409 16.0081 39.7409 16.3587V30.5442L52.0077 37.6368C52.3107 37.8116 52.4146 38.1997 52.2397 38.5035Z" fill="#171717" stroke="#171717" stroke-width="0.9125"/>
</svg>
