<svg width="72" height="71" viewBox="0 0 72 71" fill="none" xmlns="http://www.w3.org/2000/svg">
<circle cx="32.5893" cy="38.1954" r="32.5893" fill="#022B50"/>
<circle cx="39.1074" cy="32.9816" r="32.5893" fill="#FCD209"/>
<path d="M35.681 36.0462C35.681 36.4478 35.5229 36.8331 35.2416 37.1171C34.9602 37.401 34.5787 37.5606 34.1804 37.5606H17.1437C16.6075 37.5606 16.1121 37.2719 15.8441 36.8034C15.5761 36.3349 15.5761 35.7575 15.8441 35.289C16.1121 34.8205 16.6075 34.5318 17.1437 34.5318H34.1804C34.5787 34.5318 34.9602 34.6913 35.2416 34.9753C35.5229 35.2592 35.681 35.6446 35.681 36.0462ZM34.1804 40.5894H21.6456C21.1093 40.5894 20.6139 40.8781 20.346 41.3466C20.078 41.8151 20.078 42.3925 20.346 42.861C20.6139 43.3295 21.1093 43.6182 21.6456 43.6182H34.1804C34.7167 43.6182 35.2121 43.3295 35.48 42.861C35.7484 42.3925 35.7484 41.8151 35.48 41.3466C35.2121 40.8781 34.7167 40.5894 34.1804 40.5894ZM34.1804 46.647H26.1478C25.6115 46.647 25.1161 46.9357 24.8481 47.4042C24.5802 47.8728 24.5802 48.4501 24.8481 48.9186C25.1161 49.3872 25.6115 49.6759 26.1478 49.6759H34.1804C34.7167 49.6759 35.2121 49.3872 35.48 48.9186C35.7484 48.4501 35.7484 47.8728 35.48 47.4042C35.2121 46.9357 34.7167 46.647 34.1804 46.647ZM42.1337 35.6429L48.1693 29.5596C48.5375 29.1749 48.6771 28.6229 48.5371 28.1071C48.3971 27.5912 47.9978 27.1883 47.4867 27.047C46.9756 26.9057 46.4286 27.0466 46.0474 27.4181L40.0151 33.4971C39.7254 33.7793 39.5605 34.1671 39.5569 34.5731C39.5535 34.9794 39.7116 35.3702 39.9963 35.6571C40.281 35.9445 40.6679 36.1044 41.0705 36.1006C41.4731 36.0973 41.8573 35.9306 42.1367 35.6385L42.1337 35.6429ZM42.5735 17.9789V15.1533H43.9931C44.5293 15.1533 45.0247 14.8646 45.2927 14.3961C45.5607 13.9275 45.5607 13.3502 45.2927 12.8817C45.0247 12.4131 44.5293 12.1245 43.9931 12.1245H38.1558C37.6195 12.1245 37.1241 12.4131 36.8561 12.8817C36.5882 13.3502 36.5882 13.9275 36.8561 14.3961C37.1241 14.8646 37.6195 15.1533 38.1558 15.1533H39.5754V17.9759C36.0981 18.2862 32.8089 19.7043 30.1832 22.0256L28.2113 20.0355C27.8321 19.6525 27.2795 19.5028 26.7613 19.6424C26.2431 19.782 25.8381 20.1904 25.6988 20.713C25.5598 21.2359 25.7075 21.794 26.0863 22.177L28.1211 24.2289C26.8815 25.8109 25.9363 27.6069 25.3316 29.5293C25.1883 30.0401 25.3202 30.589 25.6797 30.9765C26.0387 31.3639 26.5726 31.5336 27.0871 31.4234C27.6013 31.3132 28.021 30.9393 28.1931 30.438C29.0533 27.6748 30.766 25.2616 33.0816 23.5504C35.3971 21.8396 38.194 20.9205 41.064 20.9276H41.0881C45.9159 20.9293 50.3756 23.5298 52.7886 27.7502C55.201 31.9703 55.1993 37.1689 52.7839 41.3876C50.3689 45.6063 45.9069 48.2042 41.0791 48.2025C40.8178 48.2025 40.5552 48.1889 40.2524 48.1737C39.8578 48.1595 39.474 48.3029 39.1836 48.5723C38.8932 48.842 38.7196 49.2162 38.7006 49.6138C38.6858 50.0174 38.8295 50.4105 39.1005 50.7077C39.3715 51.0048 39.7476 51.182 40.1472 51.2009C40.4578 51.2161 40.7699 51.2313 41.0791 51.2313C45.3437 51.2567 49.4527 49.6155 52.5446 46.6512C55.6369 43.6873 57.4722 39.6302 57.6662 35.3304C57.8602 31.0306 56.3977 26.8227 53.5854 23.5872C50.7731 20.3515 46.8289 18.3402 42.5794 17.9745L42.5735 17.9789Z" fill="#171717"/>
</svg>
