<svg width="72" height="72" viewBox="0 0 72 72" fill="none" xmlns="http://www.w3.org/2000/svg">
<circle cx="32.5893" cy="38.6064" r="32.5893" fill="#022B50"/>
<circle cx="39.1069" cy="33.3935" r="32.5893" fill="#FCD209"/>
<path d="M48.003 25.8098H43.7752C43.4871 23.362 42.2968 21.1417 40.4725 19.6475H48.0031C48.4896 19.6475 48.8836 19.223 48.8836 18.6994C48.8836 18.176 48.4896 17.7515 48.0031 17.7515H30.2115C29.725 17.7515 29.3309 18.176 29.3309 18.6994C29.3309 19.223 29.725 19.6475 30.2115 19.6475H35.3199C36.9271 19.6602 38.4775 20.2865 39.6955 21.4152C40.9135 22.5438 41.7194 24.1012 41.9698 25.8099H30.2118C29.7253 25.8099 29.3312 26.2344 29.3312 26.7581C29.3312 27.2817 29.7253 27.7062 30.2118 27.7062H41.9698C41.8178 29.5008 41.0544 31.1713 39.8267 32.3964C38.599 33.6217 36.9939 34.3147 35.3199 34.3426H30.2115C29.8671 34.2976 29.539 34.5134 29.4189 34.864C29.2521 35.1991 29.3255 35.6138 29.595 35.8594L42.3218 48.8004C42.4988 48.9475 42.7146 49.0304 42.9383 49.0372C43.2724 49.0162 43.5669 48.7929 43.6975 48.4611C43.8285 48.1293 43.7731 47.7466 43.5548 47.4731L32.4133 36.2386H35.3199C39.6795 36.2386 43.3348 32.4463 43.7748 27.7059H48.0023C48.4888 27.7059 48.8829 27.2814 48.8829 26.7577C48.8829 26.234 48.4888 25.8095 48.0023 25.8095L48.003 25.8098Z" fill="#171717" stroke="#171717" stroke-width="1.30357"/>
</svg>
