<svg width="27" height="27" viewBox="0 0 27 27" fill="none" xmlns="http://www.w3.org/2000/svg">
<path d="M13.9854 0.378906C11.4113 0.378906 8.89505 1.1422 6.75481 2.57227C4.61456 4.00234 2.94644 6.03495 1.96139 8.41306C0.97634 10.7912 0.718609 13.408 1.22078 15.9326C1.72296 18.4572 2.96248 20.7762 4.78261 22.5963C6.60274 24.4164 8.92173 25.656 11.4463 26.1581C13.9709 26.6603 16.5877 26.4026 18.9658 25.4175C21.344 24.4325 23.3766 22.7644 24.8066 20.6241C26.2367 18.4839 27 15.9676 27 13.3936C26.998 9.94247 25.6262 6.6333 23.1859 4.19301C20.7456 1.75272 17.4364 0.380897 13.9854 0.378906ZM20.6818 10.2482L13.0362 17.9213C12.7846 18.1749 12.4443 18.3208 12.0871 18.3282C11.9093 18.3305 11.7329 18.2955 11.5694 18.2254C11.4059 18.1553 11.259 18.0517 11.138 17.9213L7.28771 14.071C7.04584 13.813 6.91387 13.471 6.91974 13.1174C6.9256 12.7639 7.06884 12.4265 7.31913 12.1767C7.56942 11.9269 7.90711 11.7843 8.26069 11.7791C8.61427 11.7739 8.95599 11.9066 9.21348 12.1489L12.0934 15.0288L18.7898 8.33244C18.9149 8.20382 19.0645 8.10158 19.2298 8.03177C19.395 7.96196 19.5726 7.92599 19.752 7.92599C19.9315 7.92599 20.1091 7.96196 20.2743 8.03177C20.4396 8.10158 20.5892 8.20382 20.7143 8.33244C20.9643 8.5921 21.1017 8.93997 21.0965 9.30037C21.0913 9.66078 20.9441 10.0046 20.6868 10.257L20.6818 10.2482Z" fill="#FDD106"/>
</svg>
